<?xml version="1.0" encoding="UTF-8"?>
<svg version="1.1" xmlns="http://www.w3.org/2000/svg" width="180" height="180">
<path d="M0 0 C59.4 0 118.8 0 180 0 C180 59.4 180 118.8 180 180 C120.6 180 61.2 180 0 180 C0 120.6 0 61.2 0 0 Z " fill="#FEFEFE" transform="translate(0,0)"/>
<path d="M0 0 C0 0.66 0 1.32 0 2 C0.66 2 1.32 2 2 2 C3.40112305 3.75317383 3.40112305 3.75317383 5.01171875 6.20703125 C5.60138428 7.0985791 6.1910498 7.99012695 6.79858398 8.90869141 C7.42192627 9.86694824 8.04526855 10.82520508 8.6875 11.8125 C9.64088257 13.26148682 9.64088257 13.26148682 10.61352539 14.73974609 C14.80351714 21.12126863 18.94817262 27.52980445 23 34 C26.14865461 39.00438341 29.30652419 43.99540099 32.62890625 48.88671875 C33.08289795 49.55735352 33.53688965 50.22798828 34.00463867 50.91894531 C34.90202115 52.24079785 35.80435379 53.55930651 36.7121582 54.87402344 C38.76558826 57.90097606 40.25751079 60.42330394 41 64 C41.66 64 42.32 64 43 64 C46.91917951 68.38025945 47.37516696 71.5294778 47.25830078 77.30224609 C46.83875067 81.68412583 45.44677186 85.53700546 43.875 89.625 C43.56022705 90.4809375 43.2454541 91.336875 42.92114258 92.21875 C42.2754479 93.96785108 41.6225737 95.7143192 40.96240234 97.45800781 C40.04914061 99.87020497 39.15588696 102.28874573 38.26953125 104.7109375 C34.07848223 116.09674699 34.07848223 116.09674699 32 120 C31.34 120 30.68 120 30 120 C29.75121094 120.61359375 29.50242187 121.2271875 29.24609375 121.859375 C27.76793657 124.39865442 26.6793014 124.98182138 24.0625 126.25 C19.39590806 128.69087241 15.31702426 131.6146015 11.09765625 134.75390625 C7.56634915 137.31443788 3.95398301 139.72524874 0.3125 142.125 C-4.14055049 145.06547587 -8.49365763 148.05515314 -12.72265625 151.3125 C-17.41078457 154.78637896 -22.26961696 158.02387425 -27.0859375 161.31640625 C-30.24338376 163.47568719 -33.37718474 165.66582574 -36.5 167.875 C-37.99868982 168.9185508 -39.49859566 169.9603585 -41 171 C-41.71671875 171.50660156 -42.4334375 172.01320312 -43.171875 172.53515625 C-46.17219333 174.55980715 -48.5074043 175.88941729 -52.0625 176.6875 C-58.59451795 175.15872984 -62.66579159 169.34026426 -66.8359375 164.41796875 C-70.21723546 160.6399481 -73.8458559 157.11277318 -77.46923828 153.56811523 C-78.53618562 152.51752627 -79.59330707 151.45683195 -80.63867188 150.38476562 C-81.72790303 149.27678157 -82.86475327 148.21568889 -84.015625 147.171875 C-86.64516828 141.37018428 -81.99026149 132.71858162 -79.9375 127.0625 C-79.31179322 125.30884577 -78.68683222 123.55492532 -78.0625 121.80078125 C-77.56363281 120.40400146 -77.56363281 120.40400146 -77.0546875 118.97900391 C-75.54142082 114.70472612 -74.07136825 110.41589694 -72.59814453 106.12768555 C-69.84973396 98.12931359 -67.09985748 90.14369742 -64.0625 82.25 C-61.14335799 74.59843278 -58.57375091 66.83533424 -56 59.0625 C-51.50483605 45.49325377 -46.99348655 31.95143472 -41.8125 18.625 C-41.34457031 17.42101562 -40.87664062 16.21703125 -40.39453125 14.9765625 C-38.78164664 11.53393485 -37.51843864 9.62997887 -33.96630859 8.15625 C-33.20141113 7.9396875 -32.43651367 7.723125 -31.6484375 7.5 C-30.79636719 7.2525 -29.94429687 7.005 -29.06640625 6.75 C-28.17824219 6.5025 -27.29007813 6.255 -26.375 6 C-24.63241779 5.50137737 -22.89022701 5.00138469 -21.1484375 4.5 C-19.863927 4.13418823 -19.863927 4.13418823 -18.5534668 3.76098633 C-15.33126449 2.80070288 -12.16506201 1.70437441 -9.00073242 0.5690918 C-5.91945104 -0.30735322 -3.18246433 -0.20313602 0 0 Z " fill="#19903F" transform="translate(110,0)"/>
<path d="M0 0 C0 0.66 0 1.32 0 2 C0.66 2 1.32 2 2 2 C3.32 4.31 4.64 6.62 6 9 C4.35 9.33 2.7 9.66 1 10 C0.83781982 10.57322998 0.67563965 11.14645996 0.50854492 11.73706055 C-1.90210544 20.03163883 -4.90789433 28.08068027 -7.94726562 36.16210938 C-8.53604492 37.7621582 -8.53604492 37.7621582 -9.13671875 39.39453125 C-9.49467529 40.35206299 -9.85263184 41.30959473 -10.22143555 42.29614258 C-11.26644568 45.92533268 -11.68637521 48.58258529 -10.00952148 52.04541016 C-9.55134033 52.70331543 -9.09315918 53.3612207 -8.62109375 54.0390625 C-8.11513672 54.77930664 -7.60917969 55.51955078 -7.08789062 56.28222656 C-6.27094727 57.44189941 -6.27094727 57.44189941 -5.4375 58.625 C-4.33117257 60.23638996 -3.22570079 61.84836772 -2.12109375 63.4609375 C-1.58339355 64.23920898 -1.04569336 65.01748047 -0.49169922 65.81933594 C1.9701761 69.41826725 4.28334756 73.1030048 6.59375 76.80078125 C7.83242683 78.73793418 9.14406497 80.58225105 10.5 82.4375 C12 85 12 85 11.80371094 86.99145508 C10.81623139 89.45925405 9.8259017 90.21312906 7.640625 91.69921875 C6.94396729 92.18124756 6.24730957 92.66327637 5.52954102 93.15991211 C4.77729248 93.66401611 4.02504395 94.16812012 3.25 94.6875 C2.47648193 95.21931885 1.70296387 95.7511377 0.90600586 96.29907227 C-1.3896438 97.87559704 -3.69416323 99.43842953 -6 101 C-8.14978991 102.47353733 -10.2936993 103.95523063 -12.4375 105.4375 C-13.45714844 106.14003906 -14.47679688 106.84257813 -15.52734375 107.56640625 C-20.68321773 111.15356835 -25.75118988 114.86606517 -30.82202148 118.57202148 C-41.02942886 126 -41.02942886 126 -44 126 C-44 126.66 -44 127.32 -44 128 C-44.639375 128.103125 -45.27875 128.20625 -45.9375 128.3125 C-46.618125 128.539375 -47.29875 128.76625 -48 129 C-48.33 129.99 -48.66 130.98 -49 132 C-50.7421875 133.0625 -50.7421875 133.0625 -52.875 134 C-55.87040115 135.32637689 -57.70357182 136.69044938 -60 139 C-60.66 139 -61.32 139 -62 139 C-62 139.66 -62 140.32 -62 141 C-67.84256587 144.39931105 -72.21761922 145.85835109 -79 145 C-79.66 144.67 -80.32 144.34 -81 144 C-81 143.34 -81 142.68 -81 142 C-81.99 142 -82.98 142 -84 142 C-82.6848499 134.76667442 -80.32752049 128.02504523 -77.83984375 121.1328125 C-75.65990647 115.09068673 -73.58696848 109.01220913 -71.5 102.9375 C-69.11205401 96.00359414 -66.69714257 89.09409983 -64.0625 82.25 C-61.14335799 74.59843278 -58.57375091 66.83533424 -56 59.0625 C-51.50483605 45.49325377 -46.99348655 31.95143472 -41.8125 18.625 C-41.34457031 17.42101562 -40.87664062 16.21703125 -40.39453125 14.9765625 C-38.78164664 11.53393485 -37.51843864 9.62997887 -33.96630859 8.15625 C-33.20141113 7.9396875 -32.43651367 7.723125 -31.6484375 7.5 C-30.79636719 7.2525 -29.94429687 7.005 -29.06640625 6.75 C-28.17824219 6.5025 -27.29007813 6.255 -26.375 6 C-24.63241779 5.50137737 -22.89022701 5.00138469 -21.1484375 4.5 C-19.863927 4.13418823 -19.863927 4.13418823 -18.5534668 3.76098633 C-15.33126449 2.80070288 -12.16506201 1.70437441 -9.00073242 0.5690918 C-5.91945104 -0.30735322 -3.18246433 -0.20313602 0 0 Z " fill="#DE6820" transform="translate(110,0)"/>
<path d="M0 0 C1.65059004 2.08993379 2.97012946 4.03598748 4.3125 6.3125 C4.70421387 6.94969971 5.09592773 7.58689941 5.49951172 8.2434082 C6.29853505 9.54340647 7.09217904 10.84672662 7.88037109 12.15332031 C9.41960399 14.69208125 11.02105106 17.18924996 12.625 19.6875 C14.30033714 22.321268 15.97272225 24.95670715 17.63671875 27.59765625 C20.24837512 31.7312569 22.88149094 35.84188553 25.62890625 39.88671875 C26.08289795 40.55735352 26.53688965 41.22798828 27.00463867 41.91894531 C27.90202115 43.24079785 28.80435379 44.55930651 29.7121582 45.87402344 C31.76558826 48.90097606 33.25751079 51.42330394 34 55 C34.66 55 35.32 55 36 55 C39.91917951 59.38025945 40.37516696 62.5294778 40.25830078 68.30224609 C39.83875067 72.68412583 38.44677186 76.53700546 36.875 80.625 C36.56022705 81.4809375 36.2454541 82.336875 35.92114258 83.21875 C35.2754479 84.96785108 34.6225737 86.7143192 33.96240234 88.45800781 C33.04914061 90.87020497 32.15588696 93.28874573 31.26953125 95.7109375 C27.07848223 107.09674699 27.07848223 107.09674699 25 111 C24.34 111 23.68 111 23 111 C22.34 112.32 21.68 113.64 21 115 C20.01 114.505 20.01 114.505 19 114 C19.495 112.515 19.495 112.515 20 111 C20.42104135 105.31104596 20.24248512 100.32590217 18 95 C17.34 95 16.68 95 16 95 C14.59765625 93.20703125 14.59765625 93.20703125 13.0625 90.8125 C12.53527344 89.99265625 12.00804687 89.1728125 11.46484375 88.328125 C10.98144531 87.55984375 10.49804688 86.7915625 10 86 C9.38125 85.030625 8.7625 84.06125 8.125 83.0625 C7 81 7 81 7 79 C6.34 79 5.68 79 5 79 C4.46375 77.845 3.9275 76.69 3.375 75.5 C1.48170959 71.69327779 -0.77581567 68.45775065 -3.4375 65.15234375 C-5.12317484 62.83032665 -6.48230505 60.3865868 -7.88037109 57.88452148 C-9.03230621 55.94562329 -10.28691353 54.13986008 -11.61328125 52.31640625 C-12.05607422 51.69830078 -12.49886719 51.08019531 -12.95507812 50.44335938 C-13.86492317 49.18266761 -14.78968455 47.93261639 -15.72851562 46.69335938 C-16.16486328 46.07396484 -16.60121094 45.45457031 -17.05078125 44.81640625 C-17.64886597 44.00345093 -17.64886597 44.00345093 -18.2590332 43.17407227 C-20.17975995 37.53846382 -17.54391673 31.08293761 -15.6015625 25.76171875 C-15.36593597 25.114272 -15.13030945 24.46682526 -14.88754272 23.79975891 C-14.39242261 22.4462691 -13.89307975 21.09431697 -13.38964844 19.74389648 C-12.62199345 17.67941437 -11.87276139 15.60886843 -11.125 13.53710938 C-10.63910421 12.21574694 -10.15216182 10.8947688 -9.6640625 9.57421875 C-9.22529785 8.38401123 -8.7865332 7.19380371 -8.33447266 5.9675293 C-6.16601899 1.1454374 -5.42571699 0 0 0 Z " fill="#635EA2" transform="translate(117,9)"/>
<path d="M0 0 C3.61353821 3.31448678 6.15744486 6.98527758 8.8125 11.0625 C9.24900879 11.72499756 9.68551758 12.38749512 10.13525391 13.07006836 C13.31649838 17.91203227 16.44892035 22.78482776 19.5234375 27.6953125 C20.78705018 29.667618 22.11821841 31.54812517 23.5 33.4375 C25 36 25 36 24.80371094 37.99145508 C23.81623139 40.45925405 22.8259017 41.21312906 20.640625 42.69921875 C19.94396729 43.18124756 19.24730957 43.66327637 18.52954102 44.15991211 C17.77729248 44.66401611 17.02504395 45.16812012 16.25 45.6875 C15.47648193 46.21931885 14.70296387 46.7511377 13.90600586 47.29907227 C11.6103562 48.87559704 9.30583677 50.43842953 7 52 C4.85021009 53.47353733 2.7063007 54.95523063 0.5625 56.4375 C-0.45070313 57.13617188 -1.46390625 57.83484375 -2.5078125 58.5546875 C-9.74877286 63.59356689 -16.8632313 68.81520924 -24 74 C-25.16176673 70.06139119 -24.61035246 68.18121213 -23.125 64.3125 C-22.65173063 63.04970878 -22.1791286 61.78666735 -21.70703125 60.5234375 C-21.43713379 59.81155273 -21.16723633 59.09966797 -20.88916016 58.36621094 C-19.15081472 53.7401692 -17.48661251 49.08708306 -15.8125 44.4375 C-15.43496582 43.39239258 -15.05743164 42.34728516 -14.66845703 41.27050781 C-11.07459069 31.28738054 -7.61586437 21.25916597 -4.18676758 11.21850586 C-3.78482178 10.04425049 -3.38287598 8.86999512 -2.96875 7.66015625 C-2.61232422 6.61480713 -2.25589844 5.56945801 -1.88867188 4.49243164 C-1 2 -1 2 0 0 Z " fill="#FBFBFA" transform="translate(97,49)"/>
<path d="M0 0 C0 0.66 0 1.32 0 2 C0.66 2 1.32 2 2 2 C3.32 4.31 4.64 6.62 6 9 C4.35 9.33 2.7 9.66 1 10 C0.82984375 10.59353271 0.6596875 11.18706543 0.484375 11.79858398 C-1.42456297 18.32311567 -3.64889035 24.68601361 -6 31.0625 C-8.77040295 38.63921636 -11.43849701 46.23739958 -13.96484375 53.8984375 C-14.2126358 54.6491301 -14.46042786 55.39982269 -14.71572876 56.17326355 C-15.94297586 59.89838935 -17.16090979 63.62633118 -18.36914062 67.35766602 C-18.81757967 68.72676741 -19.26614143 70.09582862 -19.71484375 71.46484375 C-20.10792725 72.677771 -20.50101074 73.89069824 -20.90600586 75.14038086 C-22 78 -22 78 -24 80 C-23.62842108 73.63190601 -22.56809333 68.88521389 -20 63 C-19.83217373 61.60866609 -19.71023306 60.21132487 -19.625 58.8125 C-19.30941266 54.78533105 -18.13940573 51.68632089 -16.5 48 C-13.71617161 41.69426768 -12.8763245 36.40107631 -13.125 29.5625 C-13.08375 28.716875 -13.0425 27.87125 -13 27 C-12.01 26.34 -11.02 25.68 -10 25 C-9.67 25.33 -9.34 25.66 -9 26 C-8.855625 24.865625 -8.71125 23.73125 -8.5625 22.5625 C-8 19 -8 19 -7 18 C-6.62947661 12.82264323 -6.62947661 12.82264323 -8 8 C-8.99 7.67 -9.98 7.34 -11 7 C-11.33 7.66 -11.66 8.32 -12 9 C-12.495 8.01 -12.495 8.01 -13 7 C-13.66 8.32 -14.32 9.64 -15 11 C-16.32 10.01 -17.64 9.02 -19 8 C-19.556875 8.309375 -20.11375 8.61875 -20.6875 8.9375 C-23 10 -23 10 -25.625 10.4375 C-28.3591054 10.80002845 -28.3591054 10.80002845 -30 14 C-30.825 14.144375 -31.65 14.28875 -32.5 14.4375 C-33.325 14.623125 -34.15 14.80875 -35 15 C-36.14209817 16.78228936 -36.14209817 16.78228936 -37 19 C-37.680625 19.78375 -38.36125 20.5675 -39.0625 21.375 C-41.25258731 24.34221507 -41.50972289 26.40463454 -42 30 C-42.66 30.33 -43.32 30.66 -44 31 C-44.69749337 33.86914188 -44.69749337 33.86914188 -45.125 37.25 C-45.29257813 38.38953125 -45.46015625 39.5290625 -45.6328125 40.703125 C-46.05314223 43.91040872 -46.05314223 43.91040872 -45.9921875 46.796875 C-46 49 -46 49 -47 51 C-46.72057545 52.67654729 -46.39171753 54.34608154 -46 56 C-46.94875 56.2475 -47.8975 56.495 -48.875 56.75 C-52.08838835 57.661178 -52.08838835 57.661178 -53.1875 60.0625 C-53.455625 60.701875 -53.72375 61.34125 -54 62 C-55.485 62.495 -55.485 62.495 -57 63 C-55.15893504 56.57242233 -53.10928708 50.21851457 -51 43.875 C-50.7510498 43.1236377 -50.50209961 42.37227539 -50.24560547 41.59814453 C-48.60475919 36.68850036 -46.8499513 31.83444303 -45 27 C-44.7525 26.34547852 -44.505 25.69095703 -44.25 25.01660156 C-43.51008542 23.06950864 -42.7565676 21.12817471 -42 19.1875 C-41.7525 18.53330078 -41.505 17.87910156 -41.25 17.20507812 C-39.92202611 13.81943637 -38.80931032 11.32338219 -36 9 C-33.96630859 8.15625 -33.96630859 8.15625 -31.6484375 7.5 C-30.79636719 7.2525 -29.94429687 7.005 -29.06640625 6.75 C-27.73416016 6.37875 -27.73416016 6.37875 -26.375 6 C-24.63241779 5.50137737 -22.89022701 5.00138469 -21.1484375 4.5 C-19.863927 4.13418823 -19.863927 4.13418823 -18.5534668 3.76098633 C-15.33126449 2.80070288 -12.16506201 1.70437441 -9.00073242 0.5690918 C-5.91945104 -0.30735322 -3.18246433 -0.20313602 0 0 Z M-6 6 C-6.33 6.66 -6.66 7.32 -7 8 C-5.68 8.33 -4.36 8.66 -3 9 C-3.33 8.01 -3.66 7.02 -4 6 C-4.66 6 -5.32 6 -6 6 Z " fill="#F69518" transform="translate(110,0)"/>
<path d="M0 0 C0 3 0 3 -1 5 C-1.763125 5.268125 -2.52625 5.53625 -3.3125 5.8125 C-6.61312356 7.27091506 -7.8141577 9.17955832 -10 12 C-11.32467746 12.6837045 -12.65863633 13.34964186 -14 14 C-14.763125 14.763125 -15.52625 15.52625 -16.3125 16.3125 C-19.26476656 19.26476656 -22.3378649 21.96065937 -26 24 C-26.99 24 -27.98 24 -29 24 C-29.33 24.66 -29.66 25.32 -30 26 C-30.99 26 -31.98 26 -33 26 C-33 26.66 -33 27.32 -33 28 C-32.01 28 -31.02 28 -30 28 C-29.608125 29.134375 -29.21625 30.26875 -28.8125 31.4375 C-27.41389118 35.20339051 -27.41389118 35.20339051 -24.3125 35.9375 C-23.549375 35.958125 -22.78625 35.97875 -22 36 C-21.87625 37.36125 -21.87625 37.36125 -21.75 38.75 C-20.8847145 42.49957052 -20.00252933 43.66469941 -17 46 C-14.63276087 47.48046297 -14.63276087 47.48046297 -12 48 C-8.86500257 47.125117 -7.30655645 46.30655645 -5 44 C-3.845 43.525625 -2.69 43.05125 -1.5 42.5625 C2.19437242 41.28656506 2.19437242 41.28656506 4 38 C7.625 37.8125 7.625 37.8125 11 38 C7.54136987 40.79954453 4.02872364 43.49776268 0.4375 46.125 C-0.95662109 47.14980469 -0.95662109 47.14980469 -2.37890625 48.1953125 C-6.69456736 51.16675129 -9.65960258 52.8377094 -15 52 C-19.74011188 49.02923864 -23.25641906 44.64310809 -26.8359375 40.41796875 C-30.21723546 36.6399481 -33.8458559 33.11277318 -37.46923828 29.56811523 C-43.18468739 23.94029507 -43.18468739 23.94029507 -45 21 C-45 20.01 -45 19.02 -45 18 C-43.68 18 -42.36 18 -41 18 C-41 18.66 -41 19.32 -41 20 C-34.52729684 20.31096617 -29.69327657 20.50355481 -24 17 C-23.34 17 -22.68 17 -22 17 C-22 16.34 -22 15.68 -22 15 C-18.93051823 12.08024905 -16.24505264 9.95638819 -12.3125 8.375 C-9.32342944 7.13425373 -8.09030168 6.31033344 -6 4 C-5.34 4 -4.68 4 -4 4 C-4 3.34 -4 2.68 -4 2 C-2.68 1.34 -1.36 0.68 0 0 Z " fill="#5AB157" transform="translate(70,124)"/>
<path d="M0 0 C0.33 0 0.66 0 1 0 C2.125 6.75 2.125 6.75 1 9 C1.020625 9.78375 1.04125 10.5675 1.0625 11.375 C0.99519708 14.2017225 0.51633433 15.64125772 -1 18 C-1.66 18.33 -2.32 18.66 -3 19 C-3.87169769 20.74563146 -3.87169769 20.74563146 -4.5625 22.8125 C-4.81128906 23.49957031 -5.06007813 24.18664062 -5.31640625 24.89453125 C-6.8778021 29.39432041 -6.8778021 29.39432041 -6 34 C-6.27571139 36.00875442 -6.60235737 38.01178687 -7 40 C-7.66 39.01 -8.32 38.02 -9 37 C-9.87144869 38.5529276 -10.72153657 40.11785436 -11.5625 41.6875 C-12.03816406 42.55761719 -12.51382813 43.42773438 -13.00390625 44.32421875 C-14.15599571 47.41904731 -13.84627695 48.86877528 -13 52 C-13.4375 54.3125 -13.4375 54.3125 -14 56 C-9.81299535 56.41870047 -7.71623553 56.54966913 -4.3125 53.9375 C-3.83425781 53.48246094 -3.35601562 53.02742188 -2.86328125 52.55859375 C-0.41875127 50.51379823 2.22502461 49.06370377 5 47.5 C10.60580435 44.30065757 15.36496373 41.4525544 19 36 C19.99 36 20.98 36 22 36 C22.66 34.35 23.32 32.7 24 31 C24.33 31 24.66 31 25 31 C25.25532751 34.06393013 25.21861333 35.63233212 23.625 38.3125 C23.08875 38.869375 22.5525 39.42625 22 40 C21.34 40 20.68 40 20 40 C20 40.66 20 41.32 20 42 C19.0409375 42.1546875 19.0409375 42.1546875 18.0625 42.3125 C17.381875 42.539375 16.70125 42.76625 16 43 C15.67 43.99 15.34 44.98 15 46 C13.2578125 47.0625 13.2578125 47.0625 11.125 48 C8.12959885 49.32637689 6.29642818 50.69044938 4 53 C3.34 53 2.68 53 2 53 C2 53.66 2 54.32 2 55 C-3.84256587 58.39931105 -8.21761922 59.85835109 -15 59 C-15.66 58.67 -16.32 58.34 -17 58 C-17 57.34 -17 56.68 -17 56 C-17.99 56 -18.98 56 -20 56 C-18.7802723 49.29149763 -16.710034 43.07025075 -14.39086914 36.67993164 C-13.05809368 33.00580481 -11.76813365 29.33224698 -10.6015625 25.6015625 C-10.38346924 24.91078613 -10.16537598 24.22000977 -9.94067383 23.50830078 C-9.34433572 21.60178027 -8.75972339 19.69160368 -8.17578125 17.78125 C-7.78777344 16.8634375 -7.39976563 15.945625 -7 15 C-6.01 14.67 -5.02 14.34 -4 14 C-3.00367744 11.54103555 -3.00367744 11.54103555 -2.375 8.625 C-2.13523437 7.64789063 -1.89546875 6.67078125 -1.6484375 5.6640625 C-1.43445313 4.78492187 -1.22046875 3.90578125 -1 3 C-0.67 2.01 -0.34 1.02 0 0 Z " fill="#954A3E" transform="translate(46,86)"/>
<path d="M0 0 C0.639375 0.804375 1.27875 1.60875 1.9375 2.4375 C3.40603502 4.2750504 3.40603502 4.2750504 5 6 C5.7614328 13.14313548 4.42034991 19.00484298 1.875 25.625 C1.56022705 26.4809375 1.2454541 27.336875 0.92114258 28.21875 C0.2754479 29.96785108 -0.3774263 31.7143192 -1.03759766 33.45800781 C-1.95085939 35.87020497 -2.84411304 38.28874573 -3.73046875 40.7109375 C-7.92151777 52.09674699 -7.92151777 52.09674699 -10 56 C-10.66 56 -11.32 56 -12 56 C-12.66 57.32 -13.32 58.64 -14 60 C-14.66 59.67 -15.32 59.34 -16 59 C-15.67 58.01 -15.34 57.02 -15 56 C-14.57895865 50.31104596 -14.75751488 45.32590217 -17 40 C-17.66 40 -18.32 40 -19 40 C-20.40234375 38.20703125 -20.40234375 38.20703125 -21.9375 35.8125 C-22.46472656 34.99265625 -22.99195313 34.1728125 -23.53515625 33.328125 C-24.26025391 32.17570312 -24.26025391 32.17570312 -25 31 C-25.61875 30.030625 -26.2375 29.06125 -26.875 28.0625 C-28 26 -28 26 -28 24 C-28.66 24 -29.32 24 -30 24 C-30.99 21.69 -31.98 19.38 -33 17 C-30.21176345 15.9673198 -29.1322726 15.95490707 -26.25 16.9375 C-25.13625 17.4634375 -25.13625 17.4634375 -24 18 C-24.061875 19.03125 -24.12375 20.0625 -24.1875 21.125 C-23.98490162 25.31203327 -23.27311598 27.50914332 -21 31 C-20.29875 31.33 -19.5975 31.66 -18.875 32 C-18.25625 32.33 -17.6375 32.66 -17 33 C-16.375 36.0625 -16.375 36.0625 -16 39 C-15.34 39.33 -14.68 39.66 -14 40 C-13.67 40.99 -13.34 41.98 -13 43 C-12.34 43.33 -11.68 43.66 -11 44 C-11.33 42.68 -11.66 41.36 -12 40 C-11.01 40 -10.02 40 -9 40 C-8.67 41.65 -8.34 43.3 -8 45 C-6.83087406 42.05248736 -6.83087406 42.05248736 -7.0625 39 C-7 36 -7 36 -5 33 C-6.485 33.495 -6.485 33.495 -8 34 C-7.67 33.01 -7.34 32.02 -7 31 C-6.34 31.33 -5.68 31.66 -5 32 C-5.144375 31.4225 -5.28875 30.845 -5.4375 30.25 C-5.95833333 28.16666667 -6.47916667 26.08333333 -7 24 C-4.69 24.33 -2.38 24.66 0 25 C0 20.38 0 15.76 0 11 C0.66 11 1.32 11 2 11 C2.33 10.34 2.66 9.68 3 9 C2.34 9 1.68 9 1 9 C0.505 4.545 0.505 4.545 0 0 Z " fill="#938EBD" transform="translate(152,64)"/>
<path d="M0 0 C2.52588702 2.36292656 3.88820837 3.66462511 5 7 C3.35 7.33 1.7 7.66 0 8 C-0.17015625 8.59353271 -0.3403125 9.18706543 -0.515625 9.79858398 C-2.42456297 16.32311567 -4.64889035 22.68601361 -7 29.0625 C-9.77040295 36.63921636 -12.43849701 44.23739958 -14.96484375 51.8984375 C-15.2126358 52.6491301 -15.46042786 53.39982269 -15.71572876 54.17326355 C-16.94297586 57.89838935 -18.16090979 61.62633118 -19.36914062 65.35766602 C-19.81757967 66.72676741 -20.26614143 68.09582862 -20.71484375 69.46484375 C-21.10792725 70.677771 -21.50101074 71.89069824 -21.90600586 73.14038086 C-23 76 -23 76 -25 78 C-24.62842108 71.63190601 -23.56809333 66.88521389 -21 61 C-20.83217373 59.60866609 -20.71023306 58.21132487 -20.625 56.8125 C-20.30941266 52.78533105 -19.13940573 49.68632089 -17.5 46 C-14.71617161 39.69426768 -13.8763245 34.40107631 -14.125 27.5625 C-14.063125 26.2940625 -14.063125 26.2940625 -14 25 C-11 23 -11 23 -8 23 C-6.50254654 19.59669669 -5.09344268 16.28582466 -3.9375 12.75 C-3 10 -3 10 -1 7 C-0.60612212 4.67612053 -0.26513915 2.34206251 0 0 Z " fill="#DF863D" transform="translate(111,2)"/>
<path d="M0 0 C1.8125 2.3125 1.8125 2.3125 3 5 C2.67 5.99 2.34 6.98 2 8 C1.34 7.67 0.68 7.34 0 7 C-2.60931266 7.89363605 -2.60931266 7.89363605 -5 9 C-5.19532961 10.7699868 -5.38098882 12.54104279 -5.5625 14.3125 C-5.66691406 15.29863281 -5.77132812 16.28476562 -5.87890625 17.30078125 C-6.16602527 20.09930347 -6.16602527 20.09930347 -5 23 C-6.98 23 -8.96 23 -11 23 C-11.33 24.65 -11.66 26.3 -12 28 C-11.01 28 -10.02 28 -9 28 C-10 31 -10 31 -11.5 32.4375 C-13.2986637 34.31110802 -13.68936162 35.43723338 -14 38 C-13.62092718 40.18703385 -13.62092718 40.18703385 -13 42 C-13.66 42 -14.32 42 -15 42 C-15 41.34 -15 40.68 -15 40 C-15.66 40 -16.32 40 -17 40 C-17.33 40.66 -17.66 41.32 -18 42 C-18.33 41.67 -18.66 41.34 -19 41 C-18.56577434 35.54932522 -17.48565108 30.92331469 -15.6015625 25.76171875 C-15.36593597 25.114272 -15.13030945 24.46682526 -14.88754272 23.79975891 C-14.39242261 22.4462691 -13.89307975 21.09431697 -13.38964844 19.74389648 C-12.62199345 17.67941437 -11.87276139 15.60886843 -11.125 13.53710938 C-10.63910421 12.21574694 -10.15216182 10.8947688 -9.6640625 9.57421875 C-9.22529785 8.38401123 -8.7865332 7.19380371 -8.33447266 5.9675293 C-6.16601899 1.1454374 -5.42571699 0 0 0 Z " fill="#43254B" transform="translate(117,9)"/>
<path d="M0 0 C0 3 0 3 -1 5 C-1.763125 5.268125 -2.52625 5.53625 -3.3125 5.8125 C-6.61312356 7.27091506 -7.8141577 9.17955832 -10 12 C-11.32467746 12.6837045 -12.65863633 13.34964186 -14 14 C-14.763125 14.763125 -15.52625 15.52625 -16.3125 16.3125 C-23.75794251 23.75794251 -23.75794251 23.75794251 -28.89453125 24.3125 C-31.61480038 24.3125 -34.28932251 24.22057954 -37 24 C-37 24.99 -37 25.98 -37 27 C-36.01 27.33 -35.02 27.66 -34 28 C-33.67 29.65 -33.34 31.3 -33 33 C-37.50867152 29.33589231 -41.55388392 25.6992492 -45 21 C-45 20.01 -45 19.02 -45 18 C-43.68 18 -42.36 18 -41 18 C-41 18.66 -41 19.32 -41 20 C-34.52729684 20.31096617 -29.69327657 20.50355481 -24 17 C-23.34 17 -22.68 17 -22 17 C-22 16.34 -22 15.68 -22 15 C-18.93051823 12.08024905 -16.24505264 9.95638819 -12.3125 8.375 C-9.32342944 7.13425373 -8.09030168 6.31033344 -6 4 C-5.34 4 -4.68 4 -4 4 C-4 3.34 -4 2.68 -4 2 C-2.68 1.34 -1.36 0.68 0 0 Z " fill="#65AE59" transform="translate(70,124)"/>
<path d="M0 0 C3.63 0 7.26 0 11 0 C8.74828068 2.25171932 7.51500409 2.59475373 4.4921875 3.4375 C3.58726563 3.69273438 2.68234375 3.94796875 1.75 4.2109375 C0.80125 4.47132813 -0.1475 4.73171875 -1.125 5 C-2.05054688 5.26039063 -2.97609375 5.52078125 -3.9296875 5.7890625 C-8.13116087 6.96405081 -12.30401005 8.06378066 -16.57421875 8.95703125 C-20.02445402 9.58240141 -20.02445402 9.58240141 -21.01977539 11.75756836 C-21.84407178 14.14004109 -22.40407211 16.55007422 -23 19 C-23.79307242 21.48785733 -24.60247053 23.96399224 -25.4375 26.4375 C-25.652854 27.0869458 -25.86820801 27.7363916 -26.09008789 28.40551758 C-27.59421771 32.91224175 -29.2739772 37.31317241 -31.0859375 41.703125 C-32.56166461 45.41136235 -33.78800916 49.198756 -35 53 C-35.33 53 -35.66 53 -36 53 C-35.88610125 51.20759337 -35.75852313 49.41605165 -35.625 47.625 C-35.55539063 46.62726562 -35.48578125 45.62953125 -35.4140625 44.6015625 C-35 42 -35 42 -33 40 C-32.32707499 38.03309626 -32.32707499 38.03309626 -31.875 35.875 C-31.58625 34.59625 -31.2975 33.3175 -31 32 C-30.34 32 -29.68 32 -29 32 C-27.4943096 26.19233704 -26.78175223 21.0018137 -27 15 C-25.68 15 -24.36 15 -23 15 C-22.67 13.02 -22.34 11.04 -22 9 C-21.34 9 -20.68 9 -20 9 C-20 8.34 -20 7.68 -20 7 C-19.28714844 6.80664062 -18.57429688 6.61328125 -17.83984375 6.4140625 C-11.37599025 4.65829169 -11.37599025 4.65829169 -4.9375 2.8125 C-2 2 -2 2 0 2 C0 1.34 0 0.68 0 0 Z " fill="#FDEED0" transform="translate(92,0)"/>
<path d="M0 0 C3.20395416 0 5.09399739 0.74335022 8 2 C7.938125 3.03125 7.87625 4.0625 7.8125 5.125 C8.01509838 9.31203327 8.72688402 11.50914332 11 15 C12.051875 15.495 12.051875 15.495 13.125 16 C13.74375 16.33 14.3625 16.66 15 17 C15.625 20.0625 15.625 20.0625 16 23 C16.66 23.33 17.32 23.66 18 24 C18.33 24.99 18.66 25.98 19 27 C19.515625 27.474375 20.03125 27.94875 20.5625 28.4375 C22 30 22 30 22 34 C21.34 34 20.68 34 20 34 C19.87625 35.134375 19.7525 36.26875 19.625 37.4375 C19.315625 39.2009375 19.315625 39.2009375 19 41 C18.01 41.495 18.01 41.495 17 42 C17.02320313 41.20335937 17.04640625 40.40671875 17.0703125 39.5859375 C17.23848592 31.605026 17.23848592 31.605026 15 24 C14.34 24 13.68 24 13 24 C11.59765625 22.20703125 11.59765625 22.20703125 10.0625 19.8125 C9.53527344 18.99265625 9.00804687 18.1728125 8.46484375 17.328125 C7.98144531 16.55984375 7.49804688 15.7915625 7 15 C6.38125 14.030625 5.7625 13.06125 5.125 12.0625 C4 10 4 10 4 8 C3.34 8 2.68 8 2 8 C1.01 5.69 0.02 3.38 -1 1 C-0.67 0.67 -0.34 0.34 0 0 Z " fill="#7D76BB" transform="translate(120,80)"/>
<path d="M0 0 C0.33 0 0.66 0 1 0 C1.25532751 3.06393013 1.21861333 4.63233212 -0.375 7.3125 C-0.91125 7.869375 -1.4475 8.42625 -2 9 C-2.66 9 -3.32 9 -4 9 C-4 9.66 -4 10.32 -4 11 C-4.639375 11.103125 -5.27875 11.20625 -5.9375 11.3125 C-6.618125 11.539375 -7.29875 11.76625 -8 12 C-8.33 12.99 -8.66 13.98 -9 15 C-10.7421875 16.0625 -10.7421875 16.0625 -12.875 17 C-15.87040115 18.32637689 -17.70357182 19.69044938 -20 22 C-20.66 22 -21.32 22 -22 22 C-22 22.66 -22 23.32 -22 24 C-27.84256587 27.39931105 -32.21761922 28.85835109 -39 28 C-39.66 27.67 -40.32 27.34 -41 27 C-41 26.34 -41 25.68 -41 25 C-41.99 24.67 -42.98 24.34 -44 24 C-42.68 24 -41.36 24 -40 24 C-40 24.66 -40 25.32 -40 26 C-34.49304875 25.86538564 -30.90216247 25.50601741 -26.79296875 21.5234375 C-24.38327924 19.4759889 -21.75300345 18.05089247 -19 16.5 C-13.39419565 13.30065757 -8.63503627 10.4525544 -5 5 C-4.01 5 -3.02 5 -2 5 C-1.34 3.35 -0.68 1.7 0 0 Z " fill="#9D4423" transform="translate(70,117)"/>
<path d="M0 0 C2.79872437 2.52788007 4.45773019 4.20411134 5 8 C5.66 8 6.32 8 7 8 C10.33095484 13.27401182 10.75046311 17.93544676 10 24 C8.41493223 27.72490926 6.48486063 29.930864 3 32 C2.01 32 1.02 32 0 32 C-0.3125 29.6875 -0.3125 29.6875 0 27 C2.86103423 24.75756777 4.34076304 24 8 24 C7.71788123 22.3733152 7.42397625 20.74867104 7.125 19.125 C6.88136719 17.76761719 6.88136719 17.76761719 6.6328125 16.3828125 C6.16955297 13.83494012 6.16955297 13.83494012 4 12 C4 10.68 4 9.36 4 8 C2.68 7.34 1.36 6.68 0 6 C0 4.02 0 2.04 0 0 Z " fill="#236042" transform="translate(128,96)"/>
<path d="M0 0 C1.32 2.31 2.64 4.62 4 7 C2.125 7.625 2.125 7.625 0 8 C-0.66 7.34 -1.32 6.68 -2 6 C-2 6.66 -2 7.32 -2 8 C-2.9075 7.9175 -3.815 7.835 -4.75 7.75 C-8.06067033 7.70242646 -8.06067033 7.70242646 -10.3125 9.8125 C-12.17631174 11.98047605 -12.17631174 11.98047605 -13 15 C-14.65 15 -16.3 15 -18 15 C-17.74065388 11.46177793 -17.28146753 10.25442098 -14.6015625 7.83203125 C-13.61929688 7.16558594 -12.63703125 6.49914062 -11.625 5.8125 C-10.64789063 5.13832031 -9.67078125 4.46414062 -8.6640625 3.76953125 C-7.78492187 3.18558594 -6.90578125 2.60164063 -6 2 C-3 0 -3 0 0 0 Z " fill="#135632" transform="translate(124,88)"/>
<path d="M0 0 C0.33 0 0.66 0 1 0 C2.125 6.75 2.125 6.75 1 9 C1.020625 9.78375 1.04125 10.5675 1.0625 11.375 C0.99519708 14.2017225 0.51633433 15.64125772 -1 18 C-1.66 18.33 -2.32 18.66 -3 19 C-4.12706706 21.11015954 -4.12706706 21.11015954 -5.125 23.5625 C-5.47820313 24.38878906 -5.83140625 25.21507813 -6.1953125 26.06640625 C-6.46085937 26.70449219 -6.72640625 27.34257813 -7 28 C-7.33 27.34 -7.66 26.68 -8 26 C-8.66 26 -9.32 26 -10 26 C-9.57811541 24.1838018 -9.13700835 22.37205927 -8.6875 20.5625 C-8.44386719 19.55316406 -8.20023438 18.54382813 -7.94921875 17.50390625 C-7.63597656 16.67761719 -7.32273438 15.85132812 -7 15 C-6.01 14.67 -5.02 14.34 -4 14 C-3.00367744 11.54103555 -3.00367744 11.54103555 -2.375 8.625 C-2.13523437 7.64789063 -1.89546875 6.67078125 -1.6484375 5.6640625 C-1.43445312 4.78492187 -1.22046875 3.90578125 -1 3 C-0.67 2.01 -0.34 1.02 0 0 Z " fill="#CF5224" transform="translate(46,86)"/>
<path d="M0 0 C0.66 0.99 1.32 1.98 2 3 C-2.75 7 -2.75 7 -5 7 C-5 7.66 -5 8.32 -5 9 C-7.55821156 12.07947723 -10.57699363 13.33608654 -14.16015625 14.9375 C-16.32396448 16.00588976 -16.32396448 16.00588976 -18 19 C-21.625 19.1875 -21.625 19.1875 -25 19 C-21.47648048 15.2800017 -17.89624219 12.38131302 -13.625 9.5 C-12.47761146 8.7204245 -11.33047409 7.94047919 -10.18359375 7.16015625 C-9.13300781 6.44730469 -8.08242187 5.73445313 -7 5 C-4.65486544 3.34887274 -2.32653397 1.67726867 0 0 Z " fill="#207F4E" transform="translate(105,99)"/>
<path d="M0 0 C0.66 0.33 1.32 0.66 2 1 C2.125 7.75 2.125 7.75 1 10 C1.27942455 11.67654729 1.60828247 13.34608154 2 15 C1.05125 15.2475 0.1025 15.495 -0.875 15.75 C-4.08838835 16.661178 -4.08838835 16.661178 -5.1875 19.0625 C-5.455625 19.701875 -5.72375 20.34125 -6 21 C-6.99 21.33 -7.98 21.66 -9 22 C-7.12275039 15.62267685 -5.14328358 9.29304541 -3 3 C-2.01 3 -1.02 3 0 3 C0 2.01 0 1.02 0 0 Z " fill="#F7781D" transform="translate(62,41)"/>
<path d="M0 0 C0.99 0.33 1.98 0.66 3 1 C-0.88977349 5.42629397 -5.36937108 8.28052985 -10.37890625 11.3515625 C-12.98012885 12.91596416 -12.98012885 12.91596416 -15.10546875 14.69921875 C-17.9804027 16.67314247 -20.61609369 16.19522536 -24 16 C-24 15.34 -24 14.68 -24 14 C-22.02 14 -20.04 14 -18 14 C-18.33 11.69 -18.66 9.38 -19 7 C-18.39671875 7.01160156 -17.7934375 7.02320313 -17.171875 7.03515625 C-16.37265625 7.04417969 -15.5734375 7.05320313 -14.75 7.0625 C-13.96109375 7.07410156 -13.1721875 7.08570313 -12.359375 7.09765625 C-10.09308998 7.00385306 -8.1711105 6.63241063 -6 6 C-6 5.34 -6 4.68 -6 4 C-4.68 4 -3.36 4 -2 4 C-2 3.34 -2 2.68 -2 2 C-1.34 1.34 -0.68 0.68 0 0 Z " fill="#299F4C" transform="translate(99,146)"/>
<path d="M0 0 C3.47293554 3.47293554 6.0330931 6.83796725 8.625 10.9375 C9.01945313 11.54529297 9.41390625 12.15308594 9.8203125 12.77929688 C11.9316965 16.08546743 13.69343395 19.29806286 15 23 C13.35 23.33 11.7 23.66 10 24 C9.87625 23.443125 9.7525 22.88625 9.625 22.3125 C9.0322881 19.92247304 9.0322881 19.92247304 7.9375 17.4375 C7 15 7 15 7 12 C5.68 11.34 4.36 10.68 3 10 C2.01 10.66 1.02 11.32 0 12 C0 8.04 0 4.08 0 0 Z " fill="#524C88" transform="translate(120,16)"/>
<path d="M0 0 C0.66 0.33 1.32 0.66 2 1 C2.39502512 7.58375206 2.0699141 12.39285093 -2.40625 17.65234375 C-4.65062302 20.95839322 -5.84701864 24.50327184 -7.1875 28.25 C-7.46013672 28.99507812 -7.73277344 29.74015625 -8.01367188 30.5078125 C-8.68179356 32.33635605 -9.34171891 34.1678908 -10 36 C-10.66 36 -11.32 36 -12 36 C-10.12223791 29.14781554 -7.73870955 22.55101344 -5.20605469 15.921875 C-3.21865102 10.68212899 -1.48172168 5.40698439 0 0 Z " fill="#CC7048" transform="translate(52,64)"/>
<path d="M0 0 C0 0.99 0 1.98 0 3 C-1.72265625 4.4296875 -1.72265625 4.4296875 -4.0625 5.875 C-7.03615569 7.75162415 -9.93167375 9.64714289 -12.75 11.75 C-16 14 -16 14 -18.6875 15.0625 C-21.17907188 15.88566649 -21.17907188 15.88566649 -23.0625 18.1875 C-24.0215625 19.0846875 -24.0215625 19.0846875 -25 20 C-27.12109375 19.61328125 -27.12109375 19.61328125 -29 19 C-28.11699219 18.3709375 -27.23398438 17.741875 -26.32421875 17.09375 C-25.11189607 16.2292832 -23.89966292 15.36469082 -22.6875 14.5 C-21.74148926 13.82529663 -21.74148926 13.82529663 -20.77636719 13.13696289 C-15.86047919 9.626057 -10.97646738 6.07441463 -6.109375 2.49609375 C-2.59007833 0 -2.59007833 0 0 0 Z " fill="#D2F4E2" transform="translate(117,138)"/>
<path d="M0 0 C1.12377697 3.30435084 0.89554742 5.0506862 -0.4375 8.25 C-0.72496094 8.95640625 -1.01242188 9.6628125 -1.30859375 10.390625 C-1.53675781 10.92171875 -1.76492187 11.4528125 -2 12 C-0.35 11.67 1.3 11.34 3 11 C2 14 2 14 0.5 15.4375 C-1.2986637 17.31110802 -1.68936162 18.43723338 -2 21 C-1.62092718 23.18703385 -1.62092718 23.18703385 -1 25 C-1.66 25 -2.32 25 -3 25 C-3 24.34 -3 23.68 -3 23 C-3.66 23 -4.32 23 -5 23 C-5.33 23.66 -5.66 24.32 -6 25 C-6.33 24.67 -6.66 24.34 -7 24 C-6.58360671 18.0250868 -5.14734335 13.03742648 -2.9375 7.5 C-2.65583984 6.77296875 -2.37417969 6.0459375 -2.08398438 5.296875 C-1.39741552 3.52808745 -0.69986318 1.76356959 0 0 Z " fill="#473055" transform="translate(105,26)"/>
<path d="M0 0 C1.32 0.66 2.64 1.32 4 2 C2.69177909 5.92466272 0.3402877 6.91551445 -3 9 C-4.26898504 9.85440564 -5.53449597 10.7139889 -6.796875 11.578125 C-8.11454971 12.46879975 -9.43225844 13.35942417 -10.75 14.25 C-11.42160156 14.70890625 -12.09320313 15.1678125 -12.78515625 15.640625 C-17.77422805 19 -17.77422805 19 -20 19 C-18.61122646 15.64379729 -17.08322035 13.92701272 -14 12 C-13.34 12 -12.68 12 -12 12 C-12 11.34 -12 10.68 -12 10 C-11.030625 9.71125 -10.06125 9.4225 -9.0625 9.125 C-5.89335797 8.35785318 -5.89335797 8.35785318 -5 6 C-4.34 6 -3.68 6 -3 6 C-3 5.34 -3 4.68 -3 4 C-2.34 4 -1.68 4 -1 4 C-0.67 2.68 -0.34 1.36 0 0 Z " fill="#1D834E" transform="translate(121,128)"/>
<path d="M0 0 C0.66 0 1.32 0 2 0 C1.54857225 1.77260631 1.08859477 3.5430368 0.625 5.3125 C0.36976562 6.29863281 0.11453125 7.28476562 -0.1484375 8.30078125 C-1 11 -1 11 -3 14 C-3.165 15.03125 -3.33 16.0625 -3.5 17.125 C-3.665 18.07375 -3.83 19.0225 -4 20 C-4.66 20.33 -5.32 20.66 -6 21 C-6.68931344 23.34907875 -6.68931344 23.34907875 -7.125 26.0625 C-7.29257813 26.98160156 -7.46015625 27.90070312 -7.6328125 28.84765625 C-7.75398438 29.55792969 -7.87515625 30.26820312 -8 31 C-8.66 31 -9.32 31 -10 31 C-10 31.99 -10 32.98 -10 34 C-10.66 34 -11.32 34 -12 34 C-10.83859024 28.09730567 -9.25774641 22.58214467 -7 17 C-6.50200644 15.74502869 -6.00467262 14.48979548 -5.5078125 13.234375 C-1.23485479 2.46970959 -1.23485479 2.46970959 0 0 Z " fill="#E09F54" transform="translate(72,10)"/>
<path d="M0 0 C0.66 0.33 1.32 0.66 2 1 C0.30188276 7.6509592 -1.66538129 14.08451729 -4.1328125 20.4921875 C-4.99425075 22.9833738 -5.54455199 25.40673482 -6 28 C-7.32 28.33 -8.64 28.66 -10 29 C-9.01 27.515 -9.01 27.515 -8 26 C-8.0327272 24.03636799 -8.06670537 22.07272734 -8.11328125 20.109375 C-7.82110013 14.66876106 -4.33241767 9.57445285 -1.8671875 4.796875 C-0.87608046 2.84080663 -0.87608046 2.84080663 0 0 Z " fill="#B55D3E" transform="translate(78,96)"/>
<path d="M0 0 C2.52588702 2.36292656 3.88820837 3.66462511 5 7 C3.35 7.33 1.7 7.66 0 8 C-0.14695312 8.52464844 -0.29390625 9.04929687 -0.4453125 9.58984375 C-2.9339739 18.18573743 -5.98154094 26.57957375 -9 35 C-9.33 35 -9.66 35 -10 35 C-10.56643686 28.48597614 -8.56047496 23.91589883 -6 18 C-5.44908733 16.52425204 -4.90653222 15.0453386 -4.375 13.5625 C-3 10 -3 10 -1 7 C-0.60612212 4.67612053 -0.26513915 2.34206251 0 0 Z " fill="#D3924F" transform="translate(111,2)"/>
<path d="M0 0 C1.52491998 3.04983996 1.23562548 5.6423369 1 9 C-0.5 10.9375 -0.5 10.9375 -2 12 C-1.67 9.36 -1.34 6.72 -1 4 C-2.32 4 -3.64 4 -5 4 C-5.33 4.33 -5.66 4.66 -6 5 C-7.97509873 5.2094361 -9.95571682 5.36803822 -11.9375 5.5 C-16.12167415 5.67735084 -16.12167415 5.67735084 -20 7 C-21.99960012 7.039992 -24.00047242 7.04346799 -26 7 C-22.38011097 5.03884493 -18.57291099 3.69965945 -14.6875 2.375 C-14.04876953 2.14554687 -13.41003906 1.91609375 -12.75195312 1.6796875 C-8.37065573 0.188182 -4.61050632 -0.22664843 0 0 Z " fill="#E99E3F" transform="translate(110,0)"/>
<path d="M0 0 C0.33 0 0.66 0 1 0 C1.33 2.64 1.66 5.28 2 8 C4.49552484 7.21869929 4.49552484 7.21869929 7 6 C7.33 5.01 7.66 4.02 8 3 C8.99 2.67 9.98 2.34 11 2 C11.33 1.34 11.66 0.68 12 0 C12.99 0.33 13.98 0.66 15 1 C11.61328496 4.66038898 7.81399549 7.40850722 3.75 10.25 C3.1003125 10.70890625 2.450625 11.1678125 1.78125 11.640625 C0.18995001 12.76389558 -1.40469095 13.88243056 -3 15 C-4.18029454 11.07303872 -3.56886395 9.08438097 -2.0625 5.25 C-1.49208984 3.77273437 -1.49208984 3.77273437 -0.91015625 2.265625 C-0.60980469 1.51796875 -0.30945313 0.7703125 0 0 Z " fill="#F9EEE4" transform="translate(76,108)"/>
<path d="M0 0 C1.32 0 2.64 0 4 0 C2.41429736 7.20773928 0.60251779 13.54031293 -3 20 C-3.33 20 -3.66 20 -4 20 C-4.04241723 17.66705225 -4.04092937 15.33297433 -4 13 C-3.67 12.67 -3.34 12.34 -3 12 C-2.92794489 10.31391034 -2.91613932 8.62499341 -2.9375 6.9375 C-2.94652344 6.01839844 -2.95554687 5.09929688 -2.96484375 4.15234375 C-2.97644531 3.44207031 -2.98804687 2.73179688 -3 2 C-2.01 1.67 -1.02 1.34 0 1 C0 0.67 0 0.34 0 0 Z " fill="#F3941C" transform="translate(106,6)"/>
<path d="M0 0 C0.99 0 1.98 0 3 0 C3.33 1.65 3.66 3.3 4 5 C4.33 4.34 4.66 3.68 5 3 C5.66 3 6.32 3 7 3 C6.54554036 4.41791408 6.08625056 5.83428046 5.625 7.25 C5.36976563 8.03890625 5.11453125 8.8278125 4.8515625 9.640625 C4.04826333 11.86627958 3.10288338 13.90931672 2 16 C1.34 16 0.68 16 0 16 C-0.66 17.32 -1.32 18.64 -2 20 C-2.66 19.67 -3.32 19.34 -4 19 C-3.525625 18.2575 -3.05125 17.515 -2.5625 16.75 C-1.22130673 14.38949985 -0.487688 12.63351523 0 10 C0.66 10 1.32 10 2 10 C1.34 6.7 0.68 3.4 0 0 Z " fill="#9691BF" transform="translate(140,104)"/>
<path d="M0 0 C-1.20381448 2.49361571 -2.45428722 4.68143083 -4 7 C-4.825 7.144375 -5.65 7.28875 -6.5 7.4375 C-9.16822177 7.72912652 -9.16822177 7.72912652 -10.3125 10.0625 C-10.6528125 11.0215625 -10.6528125 11.0215625 -11 12 C-11.33 12 -11.66 12 -12 12 C-12.3203125 4.953125 -12.3203125 4.953125 -10 2 C-6.38181456 0.42687589 -3.97906647 0 0 0 Z " fill="#E99C3D" transform="translate(84,7)"/>
<path d="M0 0 C0.66 0.33 1.32 0.66 2 1 C0.02 1.99 0.02 1.99 -2 3 C-2 3.66 -2 4.32 -2 5 C-7.84256587 8.39931105 -12.21761922 9.85835109 -19 9 C-19.66 8.67 -20.32 8.34 -21 8 C-21 7.34 -21 6.68 -21 6 C-21.99 5.67 -22.98 5.34 -24 5 C-22.68 5 -21.36 5 -20 5 C-20 5.66 -20 6.32 -20 7 C-12.85194346 6.76563749 -8.3813584 4.90085731 -2.28515625 1.1796875 C-1.15400391 0.59574219 -1.15400391 0.59574219 0 0 Z " fill="#6B3E15" transform="translate(50,136)"/>
<path d="M0 0 C2.79872437 2.52788007 4.45773019 4.20411134 5 8 C5.66 8 6.32 8 7 8 C10.39366878 13.37330889 10.32712342 17.86946489 10 24 C9.67 24 9.34 24 9 24 C8.89042969 23.38511719 8.78085938 22.77023438 8.66796875 22.13671875 C8.50941406 21.32847656 8.35085937 20.52023438 8.1875 19.6875 C8.03667969 18.88699219 7.88585937 18.08648437 7.73046875 17.26171875 C7.16998596 14.92767982 7.16998596 14.92767982 5.42578125 13.45703125 C4 12 4 12 4 8 C2.68 7.34 1.36 6.68 0 6 C0 4.02 0 2.04 0 0 Z " fill="#225247" transform="translate(128,96)"/>
<path d="M0 0 C2.76519157 2.5262244 4.71214223 5.36742525 6.75 8.5 C7.38421875 9.4590625 8.0184375 10.418125 8.671875 11.40625 C9.11015625 12.2621875 9.5484375 13.118125 10 14 C9.67 14.99 9.34 15.98 9 17 C6.5625 16.375 6.5625 16.375 4 15 C3.3125 12.125 3.3125 12.125 3 9 C2.02651373 6.71519747 2.02651373 6.71519747 1 5 C0.34 5 -0.32 5 -1 5 C-0.67 3.35 -0.34 1.7 0 0 Z " fill="#7D79AD" transform="translate(141,48)"/>
<path d="M0 0 C0 3 0 3 -1 5 C-1.763125 5.268125 -2.52625 5.53625 -3.3125 5.8125 C-6.18258279 6.8187467 -6.18258279 6.8187467 -7.875 9.5 C-10.60922031 12.71672977 -12.96952083 13.02969946 -17 14 C-17.66 14.66 -18.32 15.32 -19 16 C-19.99 15.67 -20.98 15.34 -22 15 C-18.88560001 12.18944391 -16.22502481 9.93168541 -12.3125 8.375 C-9.32342944 7.13425373 -8.09030168 6.31033344 -6 4 C-5.34 4 -4.68 4 -4 4 C-4 3.34 -4 2.68 -4 2 C-2.68 1.34 -1.36 0.68 0 0 Z " fill="#568B3F" transform="translate(70,124)"/>
<path d="M0 0 C0.99 0.33 1.98 0.66 3 1 C2.67 4.63 2.34 8.26 2 12 C1.34 12 0.68 12 0 12 C-0.33 13.65 -0.66 15.3 -1 17 C-1.96328543 13.74794841 -2.16468233 10.76114248 -2.1875 7.375 C-2.20167969 6.41335937 -2.21585937 5.45171875 -2.23046875 4.4609375 C-2 2 -2 2 0 0 Z " fill="#F68E1F" transform="translate(99,25)"/>
<path d="M0 0 C1.32 0.66 2.64 1.32 4 2 C3.50628906 2.31453125 3.01257813 2.6290625 2.50390625 2.953125 C1.86324219 3.38109375 1.22257812 3.8090625 0.5625 4.25 C-0.07558594 4.66765625 -0.71367188 5.0853125 -1.37109375 5.515625 C-3.29902057 7.27248877 -3.61479436 8.46089803 -4 11 C-5.65 11 -7.3 11 -9 11 C-9 8.875 -9 8.875 -8 6 C-5.50224217 3.74515308 -2.80198037 1.85734917 0 0 Z " fill="#2B684A" transform="translate(115,92)"/>
<path d="M0 0 C2.97 0 5.94 0 9 0 C8.67 0.99 8.34 1.98 8 3 C7.01 3 6.02 3 5 3 C5 3.66 5 4.32 5 5 C5.99 5 6.98 5 8 5 C8.66 7.31 9.32 9.62 10 12 C7.625 11.3125 7.625 11.3125 5 10 C3.8125 7.4375 3.8125 7.4375 3 5 C2.34 4.67 1.68 4.34 1 4 C0.67 2.68 0.34 1.36 0 0 Z " fill="#4FB549" transform="translate(32,147)"/>
<path d="M0 0 C1.98 0 3.96 0 6 0 C4.79157144 4.43090471 3.48331435 6.98112756 0 10 C-1.36952673 7.26094655 -1.12621361 5.02912668 -1 2 C-0.67 1.34 -0.34 0.68 0 0 Z M-3 8 C-2.34 8.33 -1.68 8.66 -1 9 C-1.99 9.66 -2.98 10.32 -4 11 C-3.67 10.01 -3.34 9.02 -3 8 Z " fill="#F68D1F" transform="translate(69,22)"/>
<path d="M0 0 C1.65 0 3.3 0 5 0 C4 7.42857143 4 7.42857143 3 11 C2.01 10.67 1.02 10.34 0 10 C-0.74926071 6.33694766 -1.2380014 3.57644848 0 0 Z " fill="#F16D22" transform="translate(81,72)"/>
<path d="M0 0 C0.66 0.66 1.32 1.32 2 2 C1.625 4.125 1.625 4.125 1 6 C0.34 6 -0.32 6 -1 6 C-1.0825 7.27875 -1.165 8.5575 -1.25 9.875 C-1.83217653 15.34050801 -3.76388948 20.01815378 -6 25 C-6.66 25 -7.32 25 -8 25 C-6.07813928 16.32818942 -3.35448294 8.22047203 0 0 Z " fill="#FDEDCE" transform="translate(97,49)"/>
<path d="M0 0 C0.66 0.33 1.32 0.66 2 1 C-0.36549565 6.32236521 -3.86104334 7.89989907 -9 10 C-10.98536627 10.70905938 -12.98072489 11.39421747 -15 12 C-10.58990583 7.14889642 -5.41995647 3.651893 0 0 Z " fill="#D7F6DC" transform="translate(86,158)"/>
<path d="M0 0 C0.66 0 1.32 0 2 0 C3.60553445 1.92664134 4.87816502 3.75633004 6 6 C7.64363134 6.72159424 9.31050386 7.39351421 11 8 C11 9.98 11 11.96 11 14 C9.33333333 12.66666667 7.66666667 11.33333333 6 10 C5.0925 9.38125 4.185 8.7625 3.25 8.125 C0.46379015 5.49357958 0.25582628 3.7521187 0 0 Z " fill="#524C87" transform="translate(100,49)"/>
<path d="M0 0 C0.66 0 1.32 0 2 0 C2.29341888 5.67276511 2.00559652 8.99067246 -1 14 C-1.33 13.34 -1.66 12.68 -2 12 C-2.66 12 -3.32 12 -4 12 C-3.52494322 10.18641846 -3.04483958 8.37415821 -2.5625 6.5625 C-2.29566406 5.55316406 -2.02882812 4.54382813 -1.75390625 3.50390625 C-1 1 -1 1 0 0 Z " fill="#B1573E" transform="translate(40,100)"/>
<path d="M0 0 C0.66 0 1.32 0 2 0 C4 2 4 2 4 6 C4.66 6 5.32 6 6 6 C6.33 7.98 6.66 9.96 7 12 C5.25 11.875 5.25 11.875 3 11 C0.6875 8.25 0.6875 8.25 -1 5 C-0.75 2.125 -0.75 2.125 0 0 Z " fill="#7471AA" transform="translate(113,67)"/>
<path d="M0 0 C1.17791932 3.53375797 0.75415072 4.44851107 -0.43359375 7.88671875 C-0.9121582 9.2934082 -0.9121582 9.2934082 -1.40039062 10.72851562 C-1.74263672 11.70498047 -2.08488281 12.68144531 -2.4375 13.6875 C-2.77587891 14.67556641 -3.11425781 15.66363281 -3.46289062 16.68164062 C-4.30059974 19.12397565 -5.14657083 21.56312271 -6 24 C-8.03914127 17.8825762 -5.60150847 12.60324901 -3 7 C-2.43316936 5.68936446 -1.87052814 4.37690751 -1.3125 3.0625 C-0.6628125 1.5465625 -0.6628125 1.5465625 0 0 Z " fill="#DA8C53" transform="translate(93,56)"/>
<path d="M0 0 C1.63982495 5.47850608 0.99272412 10.83405646 -1.375 16 C-3 18 -3 18 -6 19 C-4.12275039 12.62267685 -2.14328358 6.29304541 0 0 Z " fill="#E08747" transform="translate(59,44)"/>
<path d="M0 0 C-1.46886238 3.87245536 -3.31621784 5.19903983 -7 7 C-10.11328125 7.29296875 -10.11328125 7.29296875 -13.3125 7.1875 C-14.91544922 7.14689453 -14.91544922 7.14689453 -16.55078125 7.10546875 C-17.35902344 7.07066406 -18.16726562 7.03585938 -19 7 C-18.67 5.68 -18.34 4.36 -18 3 C-17.34 3.66 -16.68 4.32 -16 5 C-10.74393405 5.87601099 -7.88703378 3.9909538 -3.734375 1.09375 C-2 0 -2 0 0 0 Z " fill="#DBF6DA" transform="translate(71,170)"/>
<path d="M0 0 C1.32 0.99 2.64 1.98 4 3 C3.814375 3.5775 3.62875 4.155 3.4375 4.75 C2.95976454 7.20692525 3.24270636 8.64397534 4 11 C3.34 11 2.68 11 2 11 C2 10.34 2 9.68 2 9 C1.34 9 0.68 9 0 9 C-0.33 9.66 -0.66 10.32 -1 11 C-1.33 10.67 -1.66 10.34 -2 10 C-1.29411765 2.58823529 -1.29411765 2.58823529 0 0 Z " fill="#503A69" transform="translate(100,40)"/>
<path d="M0 0 C0.66 0 1.32 0 2 0 C3.512545 5.16044765 4.33500455 8.65998179 3 14 C2.34 13.01 1.68 12.02 1 11 C0.34 11.66 -0.32 12.32 -1 13 C-0.67 8.71 -0.34 4.42 0 0 Z " fill="#A2331E" transform="translate(36,112)"/>
<path d="M0 0 C5.95121951 5.95121951 5.95121951 5.95121951 6.125 9.6875 C6.08375 10.450625 6.0425 11.21375 6 12 C5.01 11.34 4.02 10.68 3 10 C2.01 10.66 1.02 11.32 0 12 C0 8.04 0 4.08 0 0 Z " fill="#3A3568" transform="translate(120,16)"/>
<path d="M0 0 C0.66 0.33 1.32 0.66 2 1 C2.35050464 6.841744 2.16727335 10.8531808 -1 16 C-1.9305172 12.95151454 -2.02001966 10.59231921 -1.625 7.4375 C-1.53476562 6.67308594 -1.44453125 5.90867187 -1.3515625 5.12109375 C-1 3 -1 3 0 0 Z " fill="#E5723D" transform="translate(52,64)"/>
<path d="M0 0 C0.33 1.32 0.66 2.64 1 4 C0.01 4.495 0.01 4.495 -1 5 C-1.68931344 7.34907875 -1.68931344 7.34907875 -2.125 10.0625 C-2.29257813 10.98160156 -2.46015625 11.90070312 -2.6328125 12.84765625 C-2.75398438 13.55792969 -2.87515625 14.26820312 -3 15 C-3.66 15 -4.32 15 -5 15 C-5 15.99 -5 16.98 -5 18 C-5.66 18 -6.32 18 -7 18 C-5.71666496 11.2058733 -3.8754374 5.8131561 0 0 Z " fill="#E39342" transform="translate(67,26)"/>
<path d="M0 0 C0.99 0.33 1.98 0.66 3 1 C-1.92275574 7.29018789 -1.92275574 7.29018789 -6 9 C-7.35113205 9.97581759 -8.68946944 10.97029741 -10 12 C-10 11.01 -10 10.02 -10 9 C-9.01 8.34 -8.02 7.68 -7 7 C-6.67 6.01 -6.34 5.02 -6 4 C-3.5 2.375 -3.5 2.375 -1 1 C-0.67 0.67 -0.34 0.34 0 0 Z " fill="#50AE48" transform="translate(54,136)"/>
<path d="M0 0 C1.32 0.99 2.64 1.98 4 3 C3.67 4.32 3.34 5.64 3 7 C1.02 7.33 -0.96 7.66 -3 8 C-3 8.66 -3 9.32 -3 10 C-4.32 10.33 -5.64 10.66 -7 11 C-6.67 9.68 -6.34 8.36 -6 7 C-4.02 6.67 -2.04 6.34 0 6 C0 4.02 0 2.04 0 0 Z " fill="#03813D" transform="translate(112,130)"/>
<path d="M0 0 C0.99 0.33 1.98 0.66 3 1 C3.33 2.98 3.66 4.96 4 7 C3.34 7 2.68 7 2 7 C1.87625 8.134375 1.7525 9.26875 1.625 10.4375 C1.41875 11.613125 1.2125 12.78875 1 14 C0.01 14.495 0.01 14.495 -1 15 C-0.67 10.05 -0.34 5.1 0 0 Z " fill="#7685A3" transform="translate(138,107)"/>
<path d="M0 0 C0.639375 0.804375 1.27875 1.60875 1.9375 2.4375 C3.40603502 4.2750504 3.40603502 4.2750504 5 6 C5.07205511 7.68608966 5.08386068 9.37500659 5.0625 11.0625 C5.05347656 11.98160156 5.04445312 12.90070313 5.03515625 13.84765625 C5.02355469 14.55792969 5.01195312 15.26820312 5 16 C4.34 16 3.68 16 3 16 C3 13.69 3 11.38 3 9 C2.34 9 1.68 9 1 9 C0.67 6.03 0.34 3.06 0 0 Z " fill="#9D97BF" transform="translate(152,64)"/>
<path d="M0 0 C0.66 0.66 1.32 1.32 2 2 C2.66 1.34 3.32 0.68 4 0 C4.66 1.98 5.32 3.96 6 6 C4.02 6 2.04 6 0 6 C-0.33 7.98 -0.66 9.96 -1 12 C-1.66 12 -2.32 12 -3 12 C-2.01 8.04 -1.02 4.08 0 0 Z " fill="#39275F" transform="translate(106,26)"/>
<path d="M0 0 C1.79341438 4.16673521 0.01173384 7.74663341 -1.4375 11.75 C-1.68048828 12.44738281 -1.92347656 13.14476562 -2.17382812 13.86328125 C-2.77310248 15.57885098 -3.38529885 17.28989715 -4 19 C-4.33 19 -4.66 19 -5 19 C-5.61897694 11.88176515 -3.14955574 6.29911148 0 0 Z " fill="#D18E43" transform="translate(106,18)"/>
<path d="M0 0 C4 4 8 8 12 12 C10.68 12.33 9.36 12.66 8 13 C6.84237881 11.78192862 5.6993417 10.54998765 4.5625 9.3125 C3.92441406 8.62800781 3.28632813 7.94351563 2.62890625 7.23828125 C0.83778902 4.77710578 0.37201442 2.99183426 0 0 Z " fill="#DBF9DB" transform="translate(26,146)"/>
<path d="M0 0 C1.32 0.66 2.64 1.32 4 2 C1.9375 4.5 1.9375 4.5 -1 7 C-4.8125 7.3125 -4.8125 7.3125 -8 7 C-5.42215154 4.35247996 -3.08351902 2.05567935 0 0 Z " fill="#1E8950" transform="translate(88,111)"/>
<path d="M0 0 C1.32 0 2.64 0 4 0 C4.12375 0.969375 4.2475 1.93875 4.375 2.9375 C4.58125 3.948125 4.7875 4.95875 5 6 C5.66 6.33 6.32 6.66 7 7 C7 8.98 7 10.96 7 13 C4 9.25 4 9.25 4 7 C3.34 7 2.68 7 2 7 C0.5393715 4.35261084 0 3.10551666 0 0 Z " fill="#8A8AB9" transform="translate(131,97)"/>
<path d="M0 0 C0 1.65 0 3.3 0 5 C-0.99 5 -1.98 5 -3 5 C-3.66 4.34 -4.32 3.68 -5 3 C-5.598125 3.33 -6.19625 3.66 -6.8125 4 C-9 5 -9 5 -12 5 C-12 4.01 -12 3.02 -12 2 C-10.7625 1.67 -9.525 1.34 -8.25 1 C-7.55390625 0.814375 -6.8578125 0.62875 -6.140625 0.4375 C-4 0 -4 0 0 0 Z " fill="#EE9523" transform="translate(96,5)"/>
<path d="M0 0 C1.32 0.66 2.64 1.32 4 2 C2.74464015 5.76607955 1.47116415 6.26441793 -2 8 C-2.99 8 -3.98 8 -5 8 C-5 7.34 -5 6.68 -5 6 C-4.34 6 -3.68 6 -3 6 C-3 5.34 -3 4.68 -3 4 C-2.34 4 -1.68 4 -1 4 C-0.67 2.68 -0.34 1.36 0 0 Z " fill="#157143" transform="translate(121,128)"/>
<path d="M0 0 C0.99 0.33 1.98 0.66 3 1 C-0.54938414 4.84516615 -4.61288008 8.15122083 -9 11 C-9.66 11 -10.32 11 -11 11 C-11 10.34 -11 9.68 -11 9 C-10.34 9 -9.68 9 -9 9 C-9 8.34 -9 7.68 -9 7 C-8.360625 6.896875 -7.72125 6.79375 -7.0625 6.6875 C-6.381875 6.460625 -5.70125 6.23375 -5 6 C-4.67 5.01 -4.34 4.02 -4 3 C-3.01 2.67 -2.02 2.34 -1 2 C-0.67 1.34 -0.34 0.68 0 0 Z " fill="#CEF5E3" transform="translate(88,108)"/>
<path d="M0 0 C0.66 0 1.32 0 2 0 C3.97238976 3.94477952 3.62509292 9.00115637 2.328125 13.1484375 C1.61585997 14.79471044 0.81575615 16.40247755 0 18 C-1.82070682 14.35858635 -0.4422444 9.59207983 0.625 5.75 C1.09171747 3.57198513 0.67414198 2.0973306 0 0 Z " fill="#F37A22" transform="translate(88,52)"/>
<path d="M0 0 C2.0625 2.3125 2.0625 2.3125 4 5 C3.67 5.99 3.34 6.98 3 8 C0.03 7.505 0.03 7.505 -3 7 C-2.38722388 4.03824877 -1.74627478 2.61941217 0 0 Z " fill="#322867" transform="translate(116,9)"/>
<path d="M0 0 C0.33 0.99 0.66 1.98 1 3 C-2.90102388 5.78644563 -6.38486888 7.68139111 -11 9 C-7.56638098 5.36440339 -4.2026393 2.63886654 0 0 Z " fill="#D5F2E5" transform="translate(128,129)"/>
<path d="M0 0 C-0.875 4.75 -0.875 4.75 -2 7 C-2.66 7 -3.32 7 -4 7 C-4.66 8.32 -5.32 9.64 -6 11 C-6.66 10.67 -7.32 10.34 -8 10 C-7.525625 9.2575 -7.05125 8.515 -6.5625 7.75 C-4.9368975 5.17532911 -4.9368975 5.17532911 -4.4375 2.75 C-4.2209375 1.88375 -4.2209375 1.88375 -4 1 C-2 0 -2 0 0 0 Z " fill="#9BA2BA" transform="translate(144,113)"/>
<path d="M0 0 C4.52615993 3.67832017 8.39424999 7.41086363 12 12 C9.525 11.01 9.525 11.01 7 10 C7 9.34 7 8.68 7 8 C6.21625 7.79375 5.4325 7.5875 4.625 7.375 C2 6 2 6 0.6875 2.875 C0.460625 1.92625 0.23375 0.9775 0 0 Z " fill="#D2F5D2" transform="translate(40,161)"/>
<path d="M0 0 C0.99 0.33 1.98 0.66 3 1 C-0.38168431 4.68006822 -3.42521756 6.9785845 -8 9 C-8.66 8.34 -9.32 7.68 -10 7 C-8.68 6.67 -7.36 6.34 -6 6 C-6 5.34 -6 4.68 -6 4 C-4.68 4 -3.36 4 -2 4 C-2 3.34 -2 2.68 -2 2 C-1.34 1.34 -0.68 0.68 0 0 Z " fill="#30975B" transform="translate(99,146)"/>
<path d="M0 0 C0.08226668 3.04386724 -0.02391783 5.07175348 -1 8 C-3.0625 8.6875 -3.0625 8.6875 -5 9 C-6 7 -6 7 -5.25 4.5 C-3 0 -3 0 0 0 Z " fill="#13994D" transform="translate(78,119)"/>
<path d="M0 0 C0 0.99 0 1.98 0 3 C-0.33 3.33 -0.66 3.66 -1 4 C-1.36760731 6.32817964 -1.70241581 8.6618385 -2 11 C-3.32 10.34 -4.64 9.68 -6 9 C-5.57692877 7.68277821 -5.13602514 6.37127336 -4.6875 5.0625 C-4.44386719 4.33160156 -4.20023437 3.60070312 -3.94921875 2.84765625 C-3 1 -3 1 0 0 Z " fill="#0B9243" transform="translate(82,117)"/>
<path d="M0 0 C0.8184835 3.14750157 1.39827751 5.73412446 1 9 C-1 11.8125 -1 11.8125 -3 14 C-4.25955231 10.22134307 -3.48087189 8.96588214 -2.0625 5.3125 C-1.68222656 4.31863281 -1.30195312 3.32476562 -0.91015625 2.30078125 C-0.60980469 1.54152344 -0.30945313 0.78226562 0 0 Z " fill="#FCE7CE" transform="translate(86,80)"/>
<path d="M0 0 C0.33 0.99 0.66 1.98 1 3 C1.66 3 2.32 3 3 3 C4.33333333 5.66666667 5.66666667 8.33333333 7 11 C6.34 11.66 5.68 12.32 5 13 C3.96387729 11.59447701 2.94655075 10.17508306 1.9375 8.75 C1.36902344 7.96109375 0.80054687 7.1721875 0.21484375 6.359375 C-1 4 -1 4 -0.68359375 1.703125 C-0.45800781 1.14109375 -0.23242188 0.5790625 0 0 Z " fill="#7381A4" transform="translate(125,86)"/>
<path d="M0 0 C0.66 0 1.32 0 2 0 C1.80664062 0.56847656 1.61328125 1.13695313 1.4140625 1.72265625 C-0.18136423 6.45364938 -1.66900586 11.18794425 -3 16 C-3.33 16 -3.66 16 -4 16 C-3.65697965 10.01488629 -3.17692157 5.24882694 0 0 Z " fill="#F8E1DB" transform="translate(34,112)"/>
<path d="M0 0 C-0.75 1.9375 -0.75 1.9375 -2 4 C-5.0833893 5.10121046 -8.00048889 5.10525673 -11.25 5.0625 C-12.14203125 5.05347656 -13.0340625 5.04445312 -13.953125 5.03515625 C-14.62859375 5.02355469 -15.3040625 5.01195312 -16 5 C-16 4.67 -16 4.34 -16 4 C-15.24074219 3.87882813 -14.48148438 3.75765625 -13.69921875 3.6328125 C-12.20841797 3.38144531 -12.20841797 3.38144531 -10.6875 3.125 C-9.70136719 2.96257812 -8.71523438 2.80015625 -7.69921875 2.6328125 C-4.75085084 1.94158876 -2.98309618 0 0 0 Z " fill="#6E9342" transform="translate(48,141)"/>
<path d="M0 0 C0 0.66 0 1.32 0 2 C-6.93 5.465 -6.93 5.465 -14 9 C-12.68786941 5.06360824 -11.17198478 4.71346403 -7.5625 2.8125 C-6.07943359 2.01779297 -6.07943359 2.01779297 -4.56640625 1.20703125 C-2 0 -2 0 0 0 Z " fill="#8F2F1B" transform="translate(56,132)"/>
<path d="M0 0 C1.32 0.33 2.64 0.66 4 1 C-0.51350747 4.52273754 -3.28341664 5.45732667 -9 5 C-9 4.34 -9 3.68 -9 3 C-4.545 2.505 -4.545 2.505 0 2 C0 1.34 0 0.68 0 0 Z " fill="#3DA253" transform="translate(84,157)"/>
<path d="M0 0 C0.66 0.33 1.32 0.66 2 1 C2.95067299 4.28414305 3.10102197 5.69693408 2 9 C1.01 9.33 0.02 9.66 -1 10 C-1.125 3.375 -1.125 3.375 0 0 Z " fill="#C04C20" transform="translate(43,95)"/>
<path d="M0 0 C1.65 0 3.3 0 5 0 C4.67 1.65 4.34 3.3 4 5 C2.35 5 0.7 5 -1 5 C-0.67 3.35 -0.34 1.7 0 0 Z " fill="#0B6638" transform="translate(107,98)"/>
<path d="M0 0 C0.99 0 1.98 0 3 0 C4.32 2.31 5.64 4.62 7 7 C5.68 7.33 4.36 7.66 3 8 C2.67 7.01 2.34 6.02 2 5 C2.33 4.34 2.66 3.68 3 3 C1.68 2.34 0.36 1.68 -1 1 C-0.67 0.67 -0.34 0.34 0 0 Z " fill="#285147" transform="translate(121,88)"/>
<path d="M0 0 C-4.455 2.97 -4.455 2.97 -9 6 C-9.33 5.01 -9.66 4.02 -10 3 C-6.46732374 -0.53267626 -4.98197013 -1.24549253 0 0 Z " fill="#D9F8E9" transform="translate(101,103)"/>
<path d="M0 0 C3.0916909 2.52956528 3.90931332 5.22454612 5 9 C3.68 8.34 2.36 7.68 1 7 C1 6.34 1 5.68 1 5 C0.34 5 -0.32 5 -1 5 C-0.67 3.35 -0.34 1.7 0 0 Z " fill="#726FA3" transform="translate(141,48)"/>
<path d="M0 0 C0.66 0.33 1.32 0.66 2 1 C2 3.31 2 5.62 2 8 C1.01 8 0.02 8 -1 8 C-1.33 6.35 -1.66 4.7 -2 3 C-1.34 3 -0.68 3 0 3 C0 2.01 0 1.02 0 0 Z " fill="#F07E29" transform="translate(62,41)"/>
<path d="M0 0 C0.66 0 1.32 0 2 0 C2 1.65 2 3.3 2 5 C1.34 5 0.68 5 0 5 C-0.33 6.65 -0.66 8.3 -1 10 C-2.10717914 6.67846257 -1.9099978 4.36699184 -1 1 C-0.67 0.67 -0.34 0.34 0 0 Z " fill="#F18A2C" transform="translate(99,32)"/>
<path d="M0 0 C0 3 0 3 -1 5 C-3.90259811 6.3749149 -5.76138705 7 -9 7 C-7.625 5.5 -7.625 5.5 -6 4 C-5.34 4 -4.68 4 -4 4 C-4 3.34 -4 2.68 -4 2 C-2.68 1.34 -1.36 0.68 0 0 Z " fill="#4F8538" transform="translate(70,124)"/>
<path d="M0 0 C1.2065625 0.0309375 1.2065625 0.0309375 2.4375 0.0625 C2.4375 0.7225 2.4375 1.3825 2.4375 2.0625 C1.4475 2.7225 0.4575 3.3825 -0.5625 4.0625 C-1.58118662 5.04345748 -2.58601983 6.03952078 -3.5625 7.0625 C-3.60504356 5.06295254 -3.60330783 3.06208364 -3.5625 1.0625 C-2.5625 0.0625 -2.5625 0.0625 0 0 Z " fill="#F49321" transform="translate(75.5625,11.9375)"/>
<path d="M0 0 C-0.66 0 -1.32 0 -2 0 C-2.33 0.99 -2.66 1.98 -3 3 C-5.5625 4.1875 -5.5625 4.1875 -8 5 C-7.75 3.125 -7.75 3.125 -7 1 C-4.09342573 -1.03460199 -3.47133392 -1.15711131 0 0 Z " fill="#7F4E22" transform="translate(64,129)"/>
<path d="M0 0 C0.66 1.32 1.32 2.64 2 4 C1.01 4.33 0.02 4.66 -1 5 C-1.33 5.99 -1.66 6.98 -2 8 C-2.66 8 -3.32 8 -4 8 C-4.25 5.6875 -4.25 5.6875 -4 3 C-2 1.1875 -2 1.1875 0 0 Z " fill="#085E32" transform="translate(132,120)"/>
<path d="M0 0 C0.86625 0.3403125 0.86625 0.3403125 1.75 0.6875 C-4 5.6875 -4 5.6875 -6.25 5.6875 C-6.25 4.6975 -6.25 3.7075 -6.25 2.6875 C-4.08146295 0.51896295 -3.10906228 -0.43181421 0 0 Z " fill="#D7F5E8" transform="translate(107.25,96.3125)"/>
<path d="M0 0 C1.65 0 3.3 0 5 0 C6.125 4.75 6.125 4.75 5 7 C3.29115995 5.37660195 1.62553283 3.70680947 0 2 C0 1.34 0 0.68 0 0 Z " fill="#4F4A93" transform="translate(105,56)"/>
<path d="M0 0 C0.99 0 1.98 0 3 0 C3.103125 0.639375 3.20625 1.27875 3.3125 1.9375 C3.539375 2.618125 3.76625 3.29875 4 4 C4.99 4.33 5.98 4.66 7 5 C6.67 6.32 6.34 7.64 6 9 C2 4.25 2 4.25 2 2 C1.34 2 0.68 2 0 2 C0 1.34 0 0.68 0 0 Z " fill="#FBE2BE" transform="translate(110,0)"/>
<path d="M0 0 C0.66 0.66 1.32 1.32 2 2 C1.625 4.625 1.625 4.625 1 7 C0.67 6.34 0.34 5.68 0 5 C-0.66 5 -1.32 5 -2 5 C-1.34 3.35 -0.68 1.7 0 0 Z " fill="#AD482F" transform="translate(38,107)"/>
<path d="M0 0 C0.99 0 1.98 0 3 0 C2.25 6.75 2.25 6.75 0 9 C0 6.03 0 3.06 0 0 Z " fill="#8A81C4" transform="translate(152,75)"/>
<path d="M0 0 C2.31 0 4.62 0 7 0 C2.25 3.875 2.25 3.875 0 5 C-0.33 4.01 -0.66 3.02 -1 2 C-0.67 1.34 -0.34 0.68 0 0 Z " fill="#4EA75C" transform="translate(74,162)"/>
<path d="M0 0 C0.33 0 0.66 0 1 0 C1 1.65 1 3.3 1 5 C1.66 5.33 2.32 5.66 3 6 C0.525 7.485 0.525 7.485 -2 9 C-1.51421457 5.87709365 -1.0013988 3.00419641 0 0 Z " fill="#E2E4C8" transform="translate(74,114)"/>
<path d="M0 0 C0.66 0.99 1.32 1.98 2 3 C0.6875 4.5 0.6875 4.5 -1 6 C-1.99 6 -2.98 6 -4 6 C-4 5.01 -4 4.02 -4 3 C-2 1.3125 -2 1.3125 0 0 Z " fill="#1C7047" transform="translate(105,99)"/>
<path d="M0 0 C-2.64 1.65 -5.28 3.3 -8 5 C-7 1 -7 1 -5.125 -0.3125 C-3 -1 -3 -1 0 0 Z " fill="#D5EFE3" transform="translate(121,89)"/>
<path d="M0 0 C2.5 2.3125 2.5 2.3125 5 5 C5 5.99 5 6.98 5 8 C4.01 8 3.02 8 2 8 C1.01 5.69 0.02 3.38 -1 1 C-0.67 0.67 -0.34 0.34 0 0 Z " fill="#7E7CAC" transform="translate(120,80)"/>
<path d="M0 0 C2 3 2 3 3 6 C1.35 6 -0.3 6 -2 6 C-1.49396008 3.83125748 -1.00016187 2.00032373 0 0 Z " fill="#2D2B6F" transform="translate(109,26)"/>
<path d="M0 0 C3.24208567 0.35049575 4.61527704 0.56221181 6.8125 3.0625 C7.204375 3.701875 7.59625 4.34125 8 5 C7.67 5.66 7.34 6.32 7 7 C5.83040013 6.02433888 4.66438823 5.044375 3.5 4.0625 C2.8503125 3.51722656 2.200625 2.97195312 1.53125 2.41015625 C1.0259375 1.94480469 0.520625 1.47945312 0 1 C0 0.67 0 0.34 0 0 Z " fill="#70B96D" transform="translate(44,165)"/>
<path d="M0 0 C1.32 0 2.64 0 4 0 C4 0.66 4 1.32 4 2 C4.66 2.33 5.32 2.66 6 3 C4.35 3.33 2.7 3.66 1 4 C0.67 2.68 0.34 1.36 0 0 Z " fill="#7E935D" transform="translate(25,142)"/>
<path d="M0 0 C1.5625 1.125 1.5625 1.125 3 3 C2.6875 6.1875 2.6875 6.1875 2 9 C1.34 9 0.68 9 0 9 C-1.15941038 5.52176885 -0.70820884 3.54104422 0 0 Z " fill="#90231A" transform="translate(30,134)"/>
<path d="M0 0 C0.33 0 0.66 0 1 0 C1 1.98 1 3.96 1 6 C-0.32 6.33 -1.64 6.66 -3 7 C-1.125 1.125 -1.125 1.125 0 0 Z " fill="#864132" transform="translate(29,134)"/>
<path d="M0 0 C0.66 0 1.32 0 2 0 C3.125 4.75 3.125 4.75 2 7 C1.34 7 0.68 7 0 7 C0 4.69 0 2.38 0 0 Z " fill="#A33D25" transform="translate(36,112)"/>
<path d="M0 0 C2.475 0.99 2.475 0.99 5 2 C5 3.98 5 5.96 5 8 C2 4.25 2 4.25 2 2 C1.34 2 0.68 2 0 2 C0 1.34 0 0.68 0 0 Z " fill="#818AAD" transform="translate(133,102)"/>
<path d="M0 0 C0.99 0 1.98 0 3 0 C2.34 1.98 1.68 3.96 1 6 C0.01 5.67 -0.98 5.34 -2 5 C-1.34 3.35 -0.68 1.7 0 0 Z " fill="#F36521" transform="translate(53,74)"/>
<path d="M0 0 C2.50298434 2.93828597 3.46930939 5.17902761 4 9 C3.01 9 2.02 9 1 9 C0.67 6.03 0.34 3.06 0 0 Z " fill="#8E88B1" transform="translate(152,64)"/>
<path d="M0 0 C0.66 0.66 1.32 1.32 2 2 C1.625 4.125 1.625 4.125 1 6 C0.34 6 -0.32 6 -1 6 C-1.33 6.99 -1.66 7.98 -2 9 C-2.33 8.34 -2.66 7.68 -3 7 C-2.06421005 4.64018187 -1.06652192 2.30368736 0 0 Z " fill="#FAE1C5" transform="translate(97,49)"/>
<path d="M0 0 C2.25245881 2.68841859 3.88213958 4.64641875 5 8 C3.68 7.67 2.36 7.34 1 7 C0.67 4.69 0.34 2.38 0 0 Z " fill="#5A5682" transform="translate(126,24)"/>
</svg>
